<?xml version="1.0" encoding="UTF-8" standalone="no"?>
<!DOCTYPE svg PUBLIC "-//W3C//DTD SVG 1.1//EN" "http://www.w3.org/Graphics/SVG/1.1/DTD/svg11.dtd">
<svg width="100%" height="100%" viewBox="0 0 100 100" version="1.1" xmlns="http://www.w3.org/2000/svg" xmlns:xlink="http://www.w3.org/1999/xlink" xml:space="preserve" xmlns:serif="http://www.serif.com/" style="fill-rule:evenodd;clip-rule:evenodd;stroke-linejoin:round;stroke-miterlimit:1.5;">
    <rect id="Artboard1" x="0" y="0" width="100" height="100" style="fill:none;"/>
    <clipPath id="_clip1">
        <rect id="Artboard11" serif:id="Artboard1" x="0" y="0" width="100" height="100"/>
    </clipPath>
    <g clip-path="url(#_clip1)">
        <g transform="matrix(1.107355,0,0,1.107355,1.688145,7.005217)">
            <circle cx="43.628" cy="38.827" r="45.153" style="fill:rgb(48,100,51);"/>
        </g>
        <g transform="matrix(0.774236,0,0,0.774236,11.288183,11.288183)">
            <path d="M25.181,48.225L36.928,41.452M74.819,60.394L74.819,64.48M74.819,60.394L74.819,48.225L62.076,48.225L62.076,60.394L74.819,60.394ZM35.506,23.364L25.181,41.157L25.181,60.907L34.434,76.636L52.441,76.636L62.076,60.369L62.076,48.225L51.178,41.452L61.579,23.964L49.879,23.964" style="fill:none;stroke:rgb(254,245,236);stroke-width:5.38px;"/>
        </g>
    </g>
</svg>
